G04 Layer: BoardOutlineLayer*
G04 EasyEDA v6.5.50, 2025-05-22 15:01:32*
G04 ea8524ab3c484129a06aed2b8f8fd803,10*
G04 Gerber Generator version 0.2*
G04 Scale: 100 percent, Rotated: No, Reflected: No *
G04 Dimensions in inches *
G04 leading zeros omitted , absolute positions ,3 integer and 6 decimal *
%FSLAX36Y36*%
%MOIN*%

%ADD10C,0.0100*%
%ADD11C,0.0010*%
%ADD12C,0.0191*%
D10*
X500000Y-500000D02*
G01*
X4050000Y-500000D01*
X4050000Y-2870000D01*
X500000Y-2870000D01*
X500000Y-500000D01*
D11*
X2870000Y-1145000D02*
G01*
X2910000Y-1120000D01*
X2910000Y-1120000D02*
G01*
X2955000Y-1110000D01*
X2955000Y-1110000D02*
G01*
X3010000Y-1120000D01*
X3010000Y-1120000D02*
G01*
X3050000Y-1145000D01*
X3050000Y-1145000D02*
G01*
X3080000Y-1185000D01*
X3080000Y-1185000D02*
G01*
X3090000Y-1230000D01*
X3090000Y-1230000D02*
G01*
X3085000Y-1275000D01*
X3085000Y-1275000D02*
G01*
X3065000Y-1320000D01*
X3065000Y-1320000D02*
G01*
X2505000Y-1880000D01*
X2505000Y-1880000D02*
G01*
X2465000Y-1905000D01*
X2465000Y-1905000D02*
G01*
X2420000Y-1910000D01*
X2420000Y-1910000D02*
G01*
X2370000Y-1900000D01*
X2370000Y-1900000D02*
G01*
X2330000Y-1875000D01*
X2330000Y-1875000D02*
G01*
X2300000Y-1835000D01*
X2300000Y-1835000D02*
G01*
X2290000Y-1785000D01*
X2290000Y-1785000D02*
G01*
X2295000Y-1740000D01*
X2295000Y-1740000D02*
G01*
X2315000Y-1700000D01*
X2315000Y-1700000D02*
G01*
X2870000Y-1145000D01*

%LPD*%
M02*
