M48
; DRILL file {KiCad (5.1.9)-1} date 07/21/21 14:19:16
; FORMAT={-:-/ absolute / inch / decimal}
; #@! TF.CreationDate,2021-07-21T14:19:16-07:00
; #@! TF.GenerationSoftware,Kicad,Pcbnew,(5.1.9)-1
; #@! TF.FileFunction,Plated,1,2,PTH
FMAT,2
INCH
T1C0.0295
T2C0.0315
T3C0.0420
T4C0.0433
%
G90
G05
T1
X3.6Y-3.0
X3.65Y-3.0
X3.7Y-2.45
X3.7Y-3.0
X3.75Y-2.45
X3.8Y-2.45
X6.15Y-2.6
X6.2Y-2.6
X6.25Y-2.6
X6.45Y-2.6
X6.5Y-2.6
X6.55Y-2.6
T2
X3.85Y-2.7
X3.85Y-3.2
X4.05Y-2.45
X4.2Y-3.35
X4.35Y-3.7
X4.55Y-2.45
X4.65Y-3.5
X4.7Y-3.35
X4.85Y-3.7
X5.1Y-3.35
X5.15Y-3.5
X5.3Y-3.7
X5.6Y-3.35
X5.8Y-3.7
X6.0Y-2.7
X6.0Y-3.2
T3
X3.5904Y-2.0022
X3.5904Y-2.1022
X3.5904Y-4.0022
X3.5904Y-4.1022
X3.6904Y-2.0022
X3.6904Y-2.1022
X3.6904Y-4.0022
X3.6904Y-4.1022
X3.7904Y-2.0022
X3.7904Y-2.1022
X3.7904Y-4.0022
X3.7904Y-4.1022
X3.8904Y-2.0022
X3.8904Y-2.1022
X3.8904Y-4.0022
X3.8904Y-4.1022
X3.9904Y-2.0022
X3.9904Y-2.1022
X3.9904Y-4.0022
X3.9904Y-4.1022
X4.0904Y-2.0022
X4.0904Y-2.1022
X4.0904Y-4.0022
X4.0904Y-4.1022
X4.1904Y-2.0022
X4.1904Y-2.1022
X4.1904Y-4.0022
X4.1904Y-4.1022
X4.2904Y-2.0022
X4.2904Y-2.1022
X4.2904Y-4.0022
X4.2904Y-4.1022
X4.3904Y-2.0022
X4.3904Y-2.1022
X4.3904Y-4.0022
X4.3904Y-4.1022
X4.4904Y-2.0022
X4.4904Y-2.1022
X4.4904Y-4.0022
X4.4904Y-4.1022
X4.5Y-2.75
X4.5Y-3.15
X4.5904Y-2.0022
X4.5904Y-2.1022
X4.5904Y-4.0022
X4.5904Y-4.1022
X4.6Y-2.75
X4.6Y-3.15
X4.6904Y-2.0022
X4.6904Y-2.1022
X4.6904Y-4.0022
X4.6904Y-4.1022
X4.7Y-2.75
X4.7Y-3.15
X4.7904Y-2.0022
X4.7904Y-2.1022
X4.7904Y-4.0022
X4.7904Y-4.1022
X4.8Y-2.75
X4.8Y-3.15
X4.8904Y-2.0022
X4.8904Y-2.1022
X4.8904Y-4.0022
X4.8904Y-4.1022
X4.9Y-3.15
X4.9904Y-2.0022
X4.9904Y-2.1022
X4.9904Y-4.0022
X4.9904Y-4.1022
X5.0Y-2.75
X5.0Y-3.15
X5.0904Y-2.0022
X5.0904Y-2.1022
X5.0904Y-4.0022
X5.0904Y-4.1022
X5.1Y-3.15
X5.1904Y-2.0022
X5.1904Y-2.1022
X5.1904Y-4.0022
X5.1904Y-4.1022
X5.2Y-2.75
X5.2Y-3.15
X5.2904Y-2.0022
X5.2904Y-2.1022
X5.2904Y-4.0022
X5.2904Y-4.1022
X5.3904Y-2.0022
X5.3904Y-2.1022
X5.3904Y-4.0022
X5.3904Y-4.1022
X5.4904Y-2.0022
X5.4904Y-2.1022
X5.4904Y-4.0022
X5.4904Y-4.1022
X5.5904Y-2.0022
X5.5904Y-2.1022
X5.5904Y-4.0022
X5.5904Y-4.1022
X5.6904Y-2.0022
X5.6904Y-2.1022
X5.6904Y-4.0022
X5.6904Y-4.1022
X5.7904Y-2.0022
X5.7904Y-2.1022
X5.7904Y-4.0022
X5.7904Y-4.1022
X5.8904Y-2.0022
X5.8904Y-2.1022
X5.8904Y-4.0022
X5.8904Y-4.1022
X5.9904Y-2.0022
X5.9904Y-2.1022
X5.9904Y-4.0022
X5.9904Y-4.1022
X7.0904Y-2.0022
X7.0904Y-4.1022
X7.1904Y-2.0022
X7.1904Y-4.1022
T4
X6.25Y-2.1
X6.25Y-2.2772
X6.25Y-2.85
X6.25Y-3.0272
X6.25Y-3.25
X6.25Y-3.4272
X6.25Y-3.65
X6.25Y-3.8272
X6.25Y-4.0
X6.25Y-4.1772
X6.5059Y-2.1
X6.5059Y-2.2772
X6.5059Y-2.85
X6.5059Y-3.0272
X6.5059Y-3.25
X6.5059Y-3.4272
X6.5059Y-3.65
X6.5059Y-3.8272
X6.5059Y-4.0
X6.5059Y-4.1772
T0
M30
