%TF.GenerationSoftware,KiCad,Pcbnew,(5.1.9)-1*%
%TF.CreationDate,2021-07-21T14:19:06-07:00*%
%TF.ProjectId,Quiz3,5175697a-332e-46b6-9963-61645f706362,rev?*%
%TF.SameCoordinates,Original*%
%TF.FileFunction,Legend,Bot*%
%TF.FilePolarity,Positive*%
%FSLAX46Y46*%
G04 Gerber Fmt 4.6, Leading zero omitted, Abs format (unit mm)*
G04 Created by KiCad (PCBNEW (5.1.9)-1) date 2021-07-21 14:19:06*
%MOMM*%
%LPD*%
G01*
G04 APERTURE LIST*
%ADD10C,0.120000*%
%ADD11C,0.150000*%
G04 APERTURE END LIST*
D10*
%TO.C,R1*%
X129080000Y-87180000D02*
X129080000Y-90620000D01*
X129080000Y-90620000D02*
X119840000Y-90620000D01*
X119840000Y-90620000D02*
X119840000Y-87180000D01*
X119840000Y-87180000D02*
X129080000Y-87180000D01*
X129770000Y-88900000D02*
X129080000Y-88900000D01*
X119150000Y-88900000D02*
X119840000Y-88900000D01*
%TO.C,R2*%
X141200000Y-85090000D02*
X140510000Y-85090000D01*
X130580000Y-85090000D02*
X131270000Y-85090000D01*
X140510000Y-86810000D02*
X131270000Y-86810000D01*
X140510000Y-83370000D02*
X140510000Y-86810000D01*
X131270000Y-83370000D02*
X140510000Y-83370000D01*
X131270000Y-86810000D02*
X131270000Y-83370000D01*
%TO.C,R3*%
X97790000Y-69620000D02*
X97790000Y-70310000D01*
X97790000Y-80240000D02*
X97790000Y-79550000D01*
X99510000Y-70310000D02*
X99510000Y-79550000D01*
X96070000Y-70310000D02*
X99510000Y-70310000D01*
X96070000Y-79550000D02*
X96070000Y-70310000D01*
X99510000Y-79550000D02*
X96070000Y-79550000D01*
%TO.C,R4*%
X104600000Y-63950000D02*
X104600000Y-60510000D01*
X104600000Y-60510000D02*
X113840000Y-60510000D01*
X113840000Y-60510000D02*
X113840000Y-63950000D01*
X113840000Y-63950000D02*
X104600000Y-63950000D01*
X103910000Y-62230000D02*
X104600000Y-62230000D01*
X114530000Y-62230000D02*
X113840000Y-62230000D01*
%TO.C,R5*%
X118340000Y-85090000D02*
X117650000Y-85090000D01*
X107720000Y-85090000D02*
X108410000Y-85090000D01*
X117650000Y-86810000D02*
X108410000Y-86810000D01*
X117650000Y-83370000D02*
X117650000Y-86810000D01*
X108410000Y-83370000D02*
X117650000Y-83370000D01*
X108410000Y-86810000D02*
X108410000Y-83370000D01*
%TO.C,R6*%
X136350000Y-95700000D02*
X136350000Y-92260000D01*
X136350000Y-92260000D02*
X145590000Y-92260000D01*
X145590000Y-92260000D02*
X145590000Y-95700000D01*
X145590000Y-95700000D02*
X136350000Y-95700000D01*
X135660000Y-93980000D02*
X136350000Y-93980000D01*
X146280000Y-93980000D02*
X145590000Y-93980000D01*
%TO.C,R7*%
X152400000Y-80240000D02*
X152400000Y-79550000D01*
X152400000Y-69620000D02*
X152400000Y-70310000D01*
X150680000Y-79550000D02*
X150680000Y-70310000D01*
X154120000Y-79550000D02*
X150680000Y-79550000D01*
X154120000Y-70310000D02*
X154120000Y-79550000D01*
X150680000Y-70310000D02*
X154120000Y-70310000D01*
%TO.C,R8*%
X121460000Y-92260000D02*
X121460000Y-95700000D01*
X121460000Y-95700000D02*
X112220000Y-95700000D01*
X112220000Y-95700000D02*
X112220000Y-92260000D01*
X112220000Y-92260000D02*
X121460000Y-92260000D01*
X122150000Y-93980000D02*
X121460000Y-93980000D01*
X111530000Y-93980000D02*
X112220000Y-93980000D01*
%TO.C,R1*%
D11*
X124626666Y-86632380D02*
X124960000Y-86156190D01*
X125198095Y-86632380D02*
X125198095Y-85632380D01*
X124817142Y-85632380D01*
X124721904Y-85680000D01*
X124674285Y-85727619D01*
X124626666Y-85822857D01*
X124626666Y-85965714D01*
X124674285Y-86060952D01*
X124721904Y-86108571D01*
X124817142Y-86156190D01*
X125198095Y-86156190D01*
X123674285Y-86632380D02*
X124245714Y-86632380D01*
X123960000Y-86632380D02*
X123960000Y-85632380D01*
X124055238Y-85775238D01*
X124150476Y-85870476D01*
X124245714Y-85918095D01*
%TO.C,R2*%
X136056666Y-88262380D02*
X136390000Y-87786190D01*
X136628095Y-88262380D02*
X136628095Y-87262380D01*
X136247142Y-87262380D01*
X136151904Y-87310000D01*
X136104285Y-87357619D01*
X136056666Y-87452857D01*
X136056666Y-87595714D01*
X136104285Y-87690952D01*
X136151904Y-87738571D01*
X136247142Y-87786190D01*
X136628095Y-87786190D01*
X135675714Y-87357619D02*
X135628095Y-87310000D01*
X135532857Y-87262380D01*
X135294761Y-87262380D01*
X135199523Y-87310000D01*
X135151904Y-87357619D01*
X135104285Y-87452857D01*
X135104285Y-87548095D01*
X135151904Y-87690952D01*
X135723333Y-88262380D01*
X135104285Y-88262380D01*
%TO.C,R3*%
X100962380Y-74763333D02*
X100486190Y-74430000D01*
X100962380Y-74191904D02*
X99962380Y-74191904D01*
X99962380Y-74572857D01*
X100010000Y-74668095D01*
X100057619Y-74715714D01*
X100152857Y-74763333D01*
X100295714Y-74763333D01*
X100390952Y-74715714D01*
X100438571Y-74668095D01*
X100486190Y-74572857D01*
X100486190Y-74191904D01*
X99962380Y-75096666D02*
X99962380Y-75715714D01*
X100343333Y-75382380D01*
X100343333Y-75525238D01*
X100390952Y-75620476D01*
X100438571Y-75668095D01*
X100533809Y-75715714D01*
X100771904Y-75715714D01*
X100867142Y-75668095D01*
X100914761Y-75620476D01*
X100962380Y-75525238D01*
X100962380Y-75239523D01*
X100914761Y-75144285D01*
X100867142Y-75096666D01*
%TO.C,R4*%
X109386666Y-65402380D02*
X109720000Y-64926190D01*
X109958095Y-65402380D02*
X109958095Y-64402380D01*
X109577142Y-64402380D01*
X109481904Y-64450000D01*
X109434285Y-64497619D01*
X109386666Y-64592857D01*
X109386666Y-64735714D01*
X109434285Y-64830952D01*
X109481904Y-64878571D01*
X109577142Y-64926190D01*
X109958095Y-64926190D01*
X108529523Y-64735714D02*
X108529523Y-65402380D01*
X108767619Y-64354761D02*
X109005714Y-65069047D01*
X108386666Y-65069047D01*
%TO.C,R5*%
X113196666Y-88262380D02*
X113530000Y-87786190D01*
X113768095Y-88262380D02*
X113768095Y-87262380D01*
X113387142Y-87262380D01*
X113291904Y-87310000D01*
X113244285Y-87357619D01*
X113196666Y-87452857D01*
X113196666Y-87595714D01*
X113244285Y-87690952D01*
X113291904Y-87738571D01*
X113387142Y-87786190D01*
X113768095Y-87786190D01*
X112291904Y-87262380D02*
X112768095Y-87262380D01*
X112815714Y-87738571D01*
X112768095Y-87690952D01*
X112672857Y-87643333D01*
X112434761Y-87643333D01*
X112339523Y-87690952D01*
X112291904Y-87738571D01*
X112244285Y-87833809D01*
X112244285Y-88071904D01*
X112291904Y-88167142D01*
X112339523Y-88214761D01*
X112434761Y-88262380D01*
X112672857Y-88262380D01*
X112768095Y-88214761D01*
X112815714Y-88167142D01*
%TO.C,R6*%
X141136666Y-97152380D02*
X141470000Y-96676190D01*
X141708095Y-97152380D02*
X141708095Y-96152380D01*
X141327142Y-96152380D01*
X141231904Y-96200000D01*
X141184285Y-96247619D01*
X141136666Y-96342857D01*
X141136666Y-96485714D01*
X141184285Y-96580952D01*
X141231904Y-96628571D01*
X141327142Y-96676190D01*
X141708095Y-96676190D01*
X140279523Y-96152380D02*
X140470000Y-96152380D01*
X140565238Y-96200000D01*
X140612857Y-96247619D01*
X140708095Y-96390476D01*
X140755714Y-96580952D01*
X140755714Y-96961904D01*
X140708095Y-97057142D01*
X140660476Y-97104761D01*
X140565238Y-97152380D01*
X140374761Y-97152380D01*
X140279523Y-97104761D01*
X140231904Y-97057142D01*
X140184285Y-96961904D01*
X140184285Y-96723809D01*
X140231904Y-96628571D01*
X140279523Y-96580952D01*
X140374761Y-96533333D01*
X140565238Y-96533333D01*
X140660476Y-96580952D01*
X140708095Y-96628571D01*
X140755714Y-96723809D01*
%TO.C,R7*%
X150132380Y-74763333D02*
X149656190Y-74430000D01*
X150132380Y-74191904D02*
X149132380Y-74191904D01*
X149132380Y-74572857D01*
X149180000Y-74668095D01*
X149227619Y-74715714D01*
X149322857Y-74763333D01*
X149465714Y-74763333D01*
X149560952Y-74715714D01*
X149608571Y-74668095D01*
X149656190Y-74572857D01*
X149656190Y-74191904D01*
X149132380Y-75096666D02*
X149132380Y-75763333D01*
X150132380Y-75334761D01*
%TO.C,R8*%
X117006666Y-91712380D02*
X117340000Y-91236190D01*
X117578095Y-91712380D02*
X117578095Y-90712380D01*
X117197142Y-90712380D01*
X117101904Y-90760000D01*
X117054285Y-90807619D01*
X117006666Y-90902857D01*
X117006666Y-91045714D01*
X117054285Y-91140952D01*
X117101904Y-91188571D01*
X117197142Y-91236190D01*
X117578095Y-91236190D01*
X116435238Y-91140952D02*
X116530476Y-91093333D01*
X116578095Y-91045714D01*
X116625714Y-90950476D01*
X116625714Y-90902857D01*
X116578095Y-90807619D01*
X116530476Y-90760000D01*
X116435238Y-90712380D01*
X116244761Y-90712380D01*
X116149523Y-90760000D01*
X116101904Y-90807619D01*
X116054285Y-90902857D01*
X116054285Y-90950476D01*
X116101904Y-91045714D01*
X116149523Y-91093333D01*
X116244761Y-91140952D01*
X116435238Y-91140952D01*
X116530476Y-91188571D01*
X116578095Y-91236190D01*
X116625714Y-91331428D01*
X116625714Y-91521904D01*
X116578095Y-91617142D01*
X116530476Y-91664761D01*
X116435238Y-91712380D01*
X116244761Y-91712380D01*
X116149523Y-91664761D01*
X116101904Y-91617142D01*
X116054285Y-91521904D01*
X116054285Y-91331428D01*
X116101904Y-91236190D01*
X116149523Y-91188571D01*
X116244761Y-91140952D01*
%TD*%
M02*
