%TF.GenerationSoftware,KiCad,Pcbnew,(5.1.9)-1*%
%TF.CreationDate,2021-07-21T14:19:06-07:00*%
%TF.ProjectId,Quiz3,5175697a-332e-46b6-9963-61645f706362,rev?*%
%TF.SameCoordinates,Original*%
%TF.FileFunction,Legend,Top*%
%TF.FilePolarity,Positive*%
%FSLAX46Y46*%
G04 Gerber Fmt 4.6, Leading zero omitted, Abs format (unit mm)*
G04 Created by KiCad (PCBNEW (5.1.9)-1) date 2021-07-21 14:19:06*
%MOMM*%
%LPD*%
G01*
G04 APERTURE LIST*
%ADD10C,0.150000*%
%ADD11C,0.120000*%
%ADD12C,0.203200*%
%ADD13C,0.152400*%
G04 APERTURE END LIST*
D10*
X106086666Y-67238571D02*
X106229523Y-67286190D01*
X106277142Y-67333809D01*
X106324761Y-67429047D01*
X106324761Y-67571904D01*
X106277142Y-67667142D01*
X106229523Y-67714761D01*
X106134285Y-67762380D01*
X105753333Y-67762380D01*
X105753333Y-66762380D01*
X106086666Y-66762380D01*
X106181904Y-66810000D01*
X106229523Y-66857619D01*
X106277142Y-66952857D01*
X106277142Y-67048095D01*
X106229523Y-67143333D01*
X106181904Y-67190952D01*
X106086666Y-67238571D01*
X105753333Y-67238571D01*
X106943809Y-66762380D02*
X107039047Y-66762380D01*
X107134285Y-66810000D01*
X107181904Y-66857619D01*
X107229523Y-66952857D01*
X107277142Y-67143333D01*
X107277142Y-67381428D01*
X107229523Y-67571904D01*
X107181904Y-67667142D01*
X107134285Y-67714761D01*
X107039047Y-67762380D01*
X106943809Y-67762380D01*
X106848571Y-67714761D01*
X106800952Y-67667142D01*
X106753333Y-67571904D01*
X106705714Y-67381428D01*
X106705714Y-67143333D01*
X106753333Y-66952857D01*
X106800952Y-66857619D01*
X106848571Y-66810000D01*
X106943809Y-66762380D01*
X107610476Y-66762380D02*
X108229523Y-66762380D01*
X107896190Y-67143333D01*
X108039047Y-67143333D01*
X108134285Y-67190952D01*
X108181904Y-67238571D01*
X108229523Y-67333809D01*
X108229523Y-67571904D01*
X108181904Y-67667142D01*
X108134285Y-67714761D01*
X108039047Y-67762380D01*
X107753333Y-67762380D01*
X107658095Y-67714761D01*
X107610476Y-67667142D01*
X108420000Y-67857619D02*
X109181904Y-67857619D01*
X109943809Y-66810000D02*
X109848571Y-66762380D01*
X109705714Y-66762380D01*
X109562857Y-66810000D01*
X109467619Y-66905238D01*
X109420000Y-67000476D01*
X109372380Y-67190952D01*
X109372380Y-67333809D01*
X109420000Y-67524285D01*
X109467619Y-67619523D01*
X109562857Y-67714761D01*
X109705714Y-67762380D01*
X109800952Y-67762380D01*
X109943809Y-67714761D01*
X109991428Y-67667142D01*
X109991428Y-67333809D01*
X109800952Y-67333809D01*
X110610476Y-66762380D02*
X110705714Y-66762380D01*
X110800952Y-66810000D01*
X110848571Y-66857619D01*
X110896190Y-66952857D01*
X110943809Y-67143333D01*
X110943809Y-67381428D01*
X110896190Y-67571904D01*
X110848571Y-67667142D01*
X110800952Y-67714761D01*
X110705714Y-67762380D01*
X110610476Y-67762380D01*
X110515238Y-67714761D01*
X110467619Y-67667142D01*
X110420000Y-67571904D01*
X110372380Y-67381428D01*
X110372380Y-67143333D01*
X110420000Y-66952857D01*
X110467619Y-66857619D01*
X110515238Y-66810000D01*
X110610476Y-66762380D01*
X111420000Y-67762380D02*
X111610476Y-67762380D01*
X111705714Y-67714761D01*
X111753333Y-67667142D01*
X111848571Y-67524285D01*
X111896190Y-67333809D01*
X111896190Y-66952857D01*
X111848571Y-66857619D01*
X111800952Y-66810000D01*
X111705714Y-66762380D01*
X111515238Y-66762380D01*
X111420000Y-66810000D01*
X111372380Y-66857619D01*
X111324761Y-66952857D01*
X111324761Y-67190952D01*
X111372380Y-67286190D01*
X111420000Y-67333809D01*
X111515238Y-67381428D01*
X111705714Y-67381428D01*
X111800952Y-67333809D01*
X111848571Y-67286190D01*
X111896190Y-67190952D01*
X112086666Y-67857619D02*
X112848571Y-67857619D01*
X112943809Y-66762380D02*
X113277142Y-67762380D01*
X113610476Y-66762380D01*
X114372380Y-67095714D02*
X114372380Y-67762380D01*
X113943809Y-67095714D02*
X113943809Y-67619523D01*
X113991428Y-67714761D01*
X114086666Y-67762380D01*
X114229523Y-67762380D01*
X114324761Y-67714761D01*
X114372380Y-67667142D01*
X114610476Y-67857619D02*
X115372380Y-67857619D01*
X115943809Y-67238571D02*
X116086666Y-67286190D01*
X116134285Y-67333809D01*
X116181904Y-67429047D01*
X116181904Y-67571904D01*
X116134285Y-67667142D01*
X116086666Y-67714761D01*
X115991428Y-67762380D01*
X115610476Y-67762380D01*
X115610476Y-66762380D01*
X115943809Y-66762380D01*
X116039047Y-66810000D01*
X116086666Y-66857619D01*
X116134285Y-66952857D01*
X116134285Y-67048095D01*
X116086666Y-67143333D01*
X116039047Y-67190952D01*
X115943809Y-67238571D01*
X115610476Y-67238571D01*
X116753333Y-67762380D02*
X116658095Y-67714761D01*
X116610476Y-67667142D01*
X116562857Y-67571904D01*
X116562857Y-67286190D01*
X116610476Y-67190952D01*
X116658095Y-67143333D01*
X116753333Y-67095714D01*
X116896190Y-67095714D01*
X116991428Y-67143333D01*
X117039047Y-67190952D01*
X117086666Y-67286190D01*
X117086666Y-67571904D01*
X117039047Y-67667142D01*
X116991428Y-67714761D01*
X116896190Y-67762380D01*
X116753333Y-67762380D01*
X117658095Y-67762380D02*
X117562857Y-67714761D01*
X117515238Y-67619523D01*
X117515238Y-66762380D01*
X118467619Y-67762380D02*
X118467619Y-67238571D01*
X118420000Y-67143333D01*
X118324761Y-67095714D01*
X118134285Y-67095714D01*
X118039047Y-67143333D01*
X118467619Y-67714761D02*
X118372380Y-67762380D01*
X118134285Y-67762380D01*
X118039047Y-67714761D01*
X117991428Y-67619523D01*
X117991428Y-67524285D01*
X118039047Y-67429047D01*
X118134285Y-67381428D01*
X118372380Y-67381428D01*
X118467619Y-67333809D01*
X118943809Y-67095714D02*
X118943809Y-67952857D01*
X118896190Y-68048095D01*
X118800952Y-68095714D01*
X118753333Y-68095714D01*
X118943809Y-66762380D02*
X118896190Y-66810000D01*
X118943809Y-66857619D01*
X118991428Y-66810000D01*
X118943809Y-66762380D01*
X118943809Y-66857619D01*
X119420000Y-67762380D02*
X119420000Y-67095714D01*
X119420000Y-66762380D02*
X119372380Y-66810000D01*
X119420000Y-66857619D01*
X119467619Y-66810000D01*
X119420000Y-66762380D01*
X119420000Y-66857619D01*
X119896190Y-67381428D02*
X120658095Y-67381428D01*
X121324761Y-66762380D02*
X121515238Y-66762380D01*
X121610476Y-66810000D01*
X121705714Y-66905238D01*
X121753333Y-67095714D01*
X121753333Y-67429047D01*
X121705714Y-67619523D01*
X121610476Y-67714761D01*
X121515238Y-67762380D01*
X121324761Y-67762380D01*
X121229523Y-67714761D01*
X121134285Y-67619523D01*
X121086666Y-67429047D01*
X121086666Y-67095714D01*
X121134285Y-66905238D01*
X121229523Y-66810000D01*
X121324761Y-66762380D01*
X122086666Y-67095714D02*
X122324761Y-67762380D01*
X122562857Y-67095714D02*
X122324761Y-67762380D01*
X122229523Y-68000476D01*
X122181904Y-68048095D01*
X122086666Y-68095714D01*
X123324761Y-67714761D02*
X123229523Y-67762380D01*
X123039047Y-67762380D01*
X122943809Y-67714761D01*
X122896190Y-67619523D01*
X122896190Y-67238571D01*
X122943809Y-67143333D01*
X123039047Y-67095714D01*
X123229523Y-67095714D01*
X123324761Y-67143333D01*
X123372380Y-67238571D01*
X123372380Y-67333809D01*
X122896190Y-67429047D01*
X123800952Y-67095714D02*
X123800952Y-67762380D01*
X123800952Y-67190952D02*
X123848571Y-67143333D01*
X123943809Y-67095714D01*
X124086666Y-67095714D01*
X124181904Y-67143333D01*
X124229523Y-67238571D01*
X124229523Y-67762380D01*
X125086666Y-67714761D02*
X124991428Y-67762380D01*
X124800952Y-67762380D01*
X124705714Y-67714761D01*
X124658095Y-67619523D01*
X124658095Y-67238571D01*
X124705714Y-67143333D01*
X124800952Y-67095714D01*
X124991428Y-67095714D01*
X125086666Y-67143333D01*
X125134285Y-67238571D01*
X125134285Y-67333809D01*
X124658095Y-67429047D01*
X125562857Y-67762380D02*
X125562857Y-66762380D01*
X125658095Y-67381428D02*
X125943809Y-67762380D01*
X125943809Y-67095714D02*
X125562857Y-67476666D01*
X126800952Y-67762380D02*
X126800952Y-67238571D01*
X126753333Y-67143333D01*
X126658095Y-67095714D01*
X126467619Y-67095714D01*
X126372380Y-67143333D01*
X126800952Y-67714761D02*
X126705714Y-67762380D01*
X126467619Y-67762380D01*
X126372380Y-67714761D01*
X126324761Y-67619523D01*
X126324761Y-67524285D01*
X126372380Y-67429047D01*
X126467619Y-67381428D01*
X126705714Y-67381428D01*
X126800952Y-67333809D01*
X127277142Y-67095714D02*
X127277142Y-67762380D01*
X127277142Y-67190952D02*
X127324761Y-67143333D01*
X127420000Y-67095714D01*
X127562857Y-67095714D01*
X127658095Y-67143333D01*
X127705714Y-67238571D01*
X127705714Y-67762380D01*
X127943809Y-67857619D02*
X128705714Y-67857619D01*
X129277142Y-67238571D02*
X128943809Y-67238571D01*
X128943809Y-67762380D02*
X128943809Y-66762380D01*
X129419999Y-66762380D01*
X129800952Y-67762380D02*
X129800952Y-67095714D01*
X129800952Y-66762380D02*
X129753333Y-66810000D01*
X129800952Y-66857619D01*
X129848571Y-66810000D01*
X129800952Y-66762380D01*
X129800952Y-66857619D01*
X130277142Y-67095714D02*
X130277142Y-67762380D01*
X130277142Y-67190952D02*
X130324761Y-67143333D01*
X130420000Y-67095714D01*
X130562857Y-67095714D01*
X130658095Y-67143333D01*
X130705714Y-67238571D01*
X130705714Y-67762380D01*
X131610476Y-67762380D02*
X131610476Y-67238571D01*
X131562857Y-67143333D01*
X131467619Y-67095714D01*
X131277142Y-67095714D01*
X131181904Y-67143333D01*
X131610476Y-67714761D02*
X131515238Y-67762380D01*
X131277142Y-67762380D01*
X131181904Y-67714761D01*
X131134285Y-67619523D01*
X131134285Y-67524285D01*
X131181904Y-67429047D01*
X131277142Y-67381428D01*
X131515238Y-67381428D01*
X131610476Y-67333809D01*
X132229523Y-67762380D02*
X132134285Y-67714761D01*
X132086666Y-67619523D01*
X132086666Y-66762380D01*
X132372380Y-67857619D02*
X133134285Y-67857619D01*
X133372380Y-67095714D02*
X133372380Y-68095714D01*
X133372380Y-67143333D02*
X133467619Y-67095714D01*
X133658095Y-67095714D01*
X133753333Y-67143333D01*
X133800952Y-67190952D01*
X133848571Y-67286190D01*
X133848571Y-67571904D01*
X133800952Y-67667142D01*
X133753333Y-67714761D01*
X133658095Y-67762380D01*
X133467619Y-67762380D01*
X133372380Y-67714761D01*
X134277142Y-67762380D02*
X134277142Y-67095714D01*
X134277142Y-67286190D02*
X134324761Y-67190952D01*
X134372380Y-67143333D01*
X134467619Y-67095714D01*
X134562857Y-67095714D01*
X135039047Y-67762380D02*
X134943809Y-67714761D01*
X134896190Y-67667142D01*
X134848571Y-67571904D01*
X134848571Y-67286190D01*
X134896190Y-67190952D01*
X134943809Y-67143333D01*
X135039047Y-67095714D01*
X135181904Y-67095714D01*
X135277142Y-67143333D01*
X135324761Y-67190952D01*
X135372380Y-67286190D01*
X135372380Y-67571904D01*
X135324761Y-67667142D01*
X135277142Y-67714761D01*
X135181904Y-67762380D01*
X135039047Y-67762380D01*
X135800952Y-67095714D02*
X135800952Y-67952857D01*
X135753333Y-68048095D01*
X135658095Y-68095714D01*
X135610476Y-68095714D01*
X135800952Y-66762380D02*
X135753333Y-66810000D01*
X135800952Y-66857619D01*
X135848571Y-66810000D01*
X135800952Y-66762380D01*
X135800952Y-66857619D01*
X136658095Y-67714761D02*
X136562857Y-67762380D01*
X136372380Y-67762380D01*
X136277142Y-67714761D01*
X136229523Y-67619523D01*
X136229523Y-67238571D01*
X136277142Y-67143333D01*
X136372380Y-67095714D01*
X136562857Y-67095714D01*
X136658095Y-67143333D01*
X136705714Y-67238571D01*
X136705714Y-67333809D01*
X136229523Y-67429047D01*
X137562857Y-67714761D02*
X137467619Y-67762380D01*
X137277142Y-67762380D01*
X137181904Y-67714761D01*
X137134285Y-67667142D01*
X137086666Y-67571904D01*
X137086666Y-67286190D01*
X137134285Y-67190952D01*
X137181904Y-67143333D01*
X137277142Y-67095714D01*
X137467619Y-67095714D01*
X137562857Y-67143333D01*
X137848571Y-67095714D02*
X138229523Y-67095714D01*
X137991428Y-66762380D02*
X137991428Y-67619523D01*
X138039047Y-67714761D01*
X138134285Y-67762380D01*
X138229523Y-67762380D01*
%TO.C,STM1*%
X153681401Y-55428201D02*
X153681401Y-48824201D01*
X89673401Y-55428201D02*
X153681401Y-55428201D01*
X89673401Y-48824201D02*
X89673401Y-55428201D01*
X153681401Y-48824201D02*
X89673401Y-48824201D01*
X150887401Y-52126201D02*
X153681401Y-52126201D01*
X150887401Y-48824201D02*
X150887401Y-52126201D01*
X153681401Y-106228201D02*
X153681401Y-99624201D01*
X89673401Y-106228201D02*
X153681401Y-106228201D01*
X89673401Y-99624201D02*
X89673401Y-106228201D01*
X153681401Y-99624201D02*
X89673401Y-99624201D01*
X150887401Y-102926201D02*
X153681401Y-102926201D01*
X150887401Y-99624201D02*
X150887401Y-102926201D01*
X184161401Y-105720201D02*
X184161401Y-102672201D01*
X178573401Y-105720201D02*
X184161401Y-105720201D01*
X178573401Y-102672201D02*
X178573401Y-105720201D01*
X184161401Y-102672201D02*
X178573401Y-102672201D01*
X178573401Y-52380201D02*
X178573401Y-49332201D01*
X184161401Y-52380201D02*
X178573401Y-52380201D01*
X184161401Y-49332201D02*
X184161401Y-52380201D01*
X178573401Y-49332201D02*
X184161401Y-49332201D01*
D11*
%TO.C,Q1*%
X93450000Y-64080000D02*
X97050000Y-64080000D01*
X93411522Y-64068478D02*
G75*
G02*
X95250000Y-59630000I1838478J1838478D01*
G01*
X97088478Y-64068478D02*
G75*
G03*
X95250000Y-59630000I-1838478J1838478D01*
G01*
%TO.C,Q2*%
X90910000Y-78050000D02*
X94510000Y-78050000D01*
X94548478Y-78038478D02*
G75*
G03*
X92710000Y-73600000I-1838478J1838478D01*
G01*
X90871522Y-78038478D02*
G75*
G02*
X92710000Y-73600000I1838478J1838478D01*
G01*
%TO.C,Q3*%
X155680000Y-67890000D02*
X159280000Y-67890000D01*
X155641522Y-67878478D02*
G75*
G02*
X157480000Y-63440000I1838478J1838478D01*
G01*
X159318478Y-67878478D02*
G75*
G03*
X157480000Y-63440000I-1838478J1838478D01*
G01*
%TO.C,Q4*%
X163300000Y-67890000D02*
X166900000Y-67890000D01*
X166938478Y-67878478D02*
G75*
G03*
X165100000Y-63440000I-1838478J1838478D01*
G01*
X163261522Y-67878478D02*
G75*
G02*
X165100000Y-63440000I1838478J1838478D01*
G01*
%TO.C,SW1*%
X165500000Y-75390000D02*
X165500000Y-73890000D01*
X164250000Y-71390000D02*
X159750000Y-71390000D01*
X158500000Y-73890000D02*
X158500000Y-75390000D01*
X159750000Y-77890000D02*
X164250000Y-77890000D01*
%TO.C,SW2*%
X159750000Y-88050000D02*
X164250000Y-88050000D01*
X158500000Y-84050000D02*
X158500000Y-85550000D01*
X164250000Y-81550000D02*
X159750000Y-81550000D01*
X165500000Y-85550000D02*
X165500000Y-84050000D01*
%TO.C,SW3*%
X165500000Y-104600000D02*
X165500000Y-103100000D01*
X164250000Y-100600000D02*
X159750000Y-100600000D01*
X158500000Y-103100000D02*
X158500000Y-104600000D01*
X159750000Y-107100000D02*
X164250000Y-107100000D01*
%TO.C,SW4*%
X159750000Y-98210000D02*
X164250000Y-98210000D01*
X158500000Y-94210000D02*
X158500000Y-95710000D01*
X164250000Y-91710000D02*
X159750000Y-91710000D01*
X165500000Y-95710000D02*
X165500000Y-94210000D01*
%TO.C,SW5*%
X165500000Y-56340000D02*
X165500000Y-54840000D01*
X164250000Y-52340000D02*
X159750000Y-52340000D01*
X158500000Y-54840000D02*
X158500000Y-56340000D01*
X159750000Y-58840000D02*
X164250000Y-58840000D01*
D10*
%TO.C,U1*%
X102870000Y-81280000D02*
X102870000Y-68580000D01*
X143510000Y-81280000D02*
X102870000Y-81280000D01*
X143510000Y-68580000D02*
X143510000Y-81280000D01*
X102870000Y-68580000D02*
X143510000Y-68580000D01*
%TO.C,H2*%
X171958095Y-45512380D02*
X171958095Y-44512380D01*
X171958095Y-44988571D02*
X172529523Y-44988571D01*
X172529523Y-45512380D02*
X172529523Y-44512380D01*
X172958095Y-44607619D02*
X173005714Y-44560000D01*
X173100952Y-44512380D01*
X173339047Y-44512380D01*
X173434285Y-44560000D01*
X173481904Y-44607619D01*
X173529523Y-44702857D01*
X173529523Y-44798095D01*
X173481904Y-44940952D01*
X172910476Y-45512380D01*
X173529523Y-45512380D01*
%TO.C,H1*%
X173228095Y-97582380D02*
X173228095Y-96582380D01*
X173228095Y-97058571D02*
X173799523Y-97058571D01*
X173799523Y-97582380D02*
X173799523Y-96582380D01*
X174799523Y-97582380D02*
X174228095Y-97582380D01*
X174513809Y-97582380D02*
X174513809Y-96582380D01*
X174418571Y-96725238D01*
X174323333Y-96820476D01*
X174228095Y-96868095D01*
%TO.C,STM1*%
D12*
X134304829Y-78143058D02*
X134522543Y-78215629D01*
X134885401Y-78215629D01*
X135030543Y-78143058D01*
X135103115Y-78070486D01*
X135175686Y-77925343D01*
X135175686Y-77780201D01*
X135103115Y-77635058D01*
X135030543Y-77562486D01*
X134885401Y-77489915D01*
X134595115Y-77417343D01*
X134449972Y-77344772D01*
X134377401Y-77272201D01*
X134304829Y-77127058D01*
X134304829Y-76981915D01*
X134377401Y-76836772D01*
X134449972Y-76764201D01*
X134595115Y-76691629D01*
X134957972Y-76691629D01*
X135175686Y-76764201D01*
X135611115Y-76691629D02*
X136481972Y-76691629D01*
X136046543Y-78215629D02*
X136046543Y-76691629D01*
X136989972Y-78215629D02*
X136989972Y-76691629D01*
X137497972Y-77780201D01*
X138005972Y-76691629D01*
X138005972Y-78215629D01*
X139529972Y-78215629D02*
X138659115Y-78215629D01*
X139094543Y-78215629D02*
X139094543Y-76691629D01*
X138949401Y-76909343D01*
X138804258Y-77054486D01*
X138659115Y-77127058D01*
%TO.C,Q1*%
D10*
X95154761Y-59217619D02*
X95059523Y-59170000D01*
X94964285Y-59074761D01*
X94821428Y-58931904D01*
X94726190Y-58884285D01*
X94630952Y-58884285D01*
X94678571Y-59122380D02*
X94583333Y-59074761D01*
X94488095Y-58979523D01*
X94440476Y-58789047D01*
X94440476Y-58455714D01*
X94488095Y-58265238D01*
X94583333Y-58170000D01*
X94678571Y-58122380D01*
X94869047Y-58122380D01*
X94964285Y-58170000D01*
X95059523Y-58265238D01*
X95107142Y-58455714D01*
X95107142Y-58789047D01*
X95059523Y-58979523D01*
X94964285Y-59074761D01*
X94869047Y-59122380D01*
X94678571Y-59122380D01*
X96059523Y-59122380D02*
X95488095Y-59122380D01*
X95773809Y-59122380D02*
X95773809Y-58122380D01*
X95678571Y-58265238D01*
X95583333Y-58360476D01*
X95488095Y-58408095D01*
%TO.C,Q2*%
X92614761Y-73187619D02*
X92519523Y-73140000D01*
X92424285Y-73044761D01*
X92281428Y-72901904D01*
X92186190Y-72854285D01*
X92090952Y-72854285D01*
X92138571Y-73092380D02*
X92043333Y-73044761D01*
X91948095Y-72949523D01*
X91900476Y-72759047D01*
X91900476Y-72425714D01*
X91948095Y-72235238D01*
X92043333Y-72140000D01*
X92138571Y-72092380D01*
X92329047Y-72092380D01*
X92424285Y-72140000D01*
X92519523Y-72235238D01*
X92567142Y-72425714D01*
X92567142Y-72759047D01*
X92519523Y-72949523D01*
X92424285Y-73044761D01*
X92329047Y-73092380D01*
X92138571Y-73092380D01*
X92948095Y-72187619D02*
X92995714Y-72140000D01*
X93090952Y-72092380D01*
X93329047Y-72092380D01*
X93424285Y-72140000D01*
X93471904Y-72187619D01*
X93519523Y-72282857D01*
X93519523Y-72378095D01*
X93471904Y-72520952D01*
X92900476Y-73092380D01*
X93519523Y-73092380D01*
%TO.C,Q3*%
X157384761Y-63027619D02*
X157289523Y-62980000D01*
X157194285Y-62884761D01*
X157051428Y-62741904D01*
X156956190Y-62694285D01*
X156860952Y-62694285D01*
X156908571Y-62932380D02*
X156813333Y-62884761D01*
X156718095Y-62789523D01*
X156670476Y-62599047D01*
X156670476Y-62265714D01*
X156718095Y-62075238D01*
X156813333Y-61980000D01*
X156908571Y-61932380D01*
X157099047Y-61932380D01*
X157194285Y-61980000D01*
X157289523Y-62075238D01*
X157337142Y-62265714D01*
X157337142Y-62599047D01*
X157289523Y-62789523D01*
X157194285Y-62884761D01*
X157099047Y-62932380D01*
X156908571Y-62932380D01*
X157670476Y-61932380D02*
X158289523Y-61932380D01*
X157956190Y-62313333D01*
X158099047Y-62313333D01*
X158194285Y-62360952D01*
X158241904Y-62408571D01*
X158289523Y-62503809D01*
X158289523Y-62741904D01*
X158241904Y-62837142D01*
X158194285Y-62884761D01*
X158099047Y-62932380D01*
X157813333Y-62932380D01*
X157718095Y-62884761D01*
X157670476Y-62837142D01*
%TO.C,Q4*%
X165004761Y-63027619D02*
X164909523Y-62980000D01*
X164814285Y-62884761D01*
X164671428Y-62741904D01*
X164576190Y-62694285D01*
X164480952Y-62694285D01*
X164528571Y-62932380D02*
X164433333Y-62884761D01*
X164338095Y-62789523D01*
X164290476Y-62599047D01*
X164290476Y-62265714D01*
X164338095Y-62075238D01*
X164433333Y-61980000D01*
X164528571Y-61932380D01*
X164719047Y-61932380D01*
X164814285Y-61980000D01*
X164909523Y-62075238D01*
X164957142Y-62265714D01*
X164957142Y-62599047D01*
X164909523Y-62789523D01*
X164814285Y-62884761D01*
X164719047Y-62932380D01*
X164528571Y-62932380D01*
X165814285Y-62265714D02*
X165814285Y-62932380D01*
X165576190Y-61884761D02*
X165338095Y-62599047D01*
X165957142Y-62599047D01*
%TO.C,SW1*%
X160666666Y-70794761D02*
X160809523Y-70842380D01*
X161047619Y-70842380D01*
X161142857Y-70794761D01*
X161190476Y-70747142D01*
X161238095Y-70651904D01*
X161238095Y-70556666D01*
X161190476Y-70461428D01*
X161142857Y-70413809D01*
X161047619Y-70366190D01*
X160857142Y-70318571D01*
X160761904Y-70270952D01*
X160714285Y-70223333D01*
X160666666Y-70128095D01*
X160666666Y-70032857D01*
X160714285Y-69937619D01*
X160761904Y-69890000D01*
X160857142Y-69842380D01*
X161095238Y-69842380D01*
X161238095Y-69890000D01*
X161571428Y-69842380D02*
X161809523Y-70842380D01*
X162000000Y-70128095D01*
X162190476Y-70842380D01*
X162428571Y-69842380D01*
X163333333Y-70842380D02*
X162761904Y-70842380D01*
X163047619Y-70842380D02*
X163047619Y-69842380D01*
X162952380Y-69985238D01*
X162857142Y-70080476D01*
X162761904Y-70128095D01*
%TO.C,SW2*%
X160666666Y-80954761D02*
X160809523Y-81002380D01*
X161047619Y-81002380D01*
X161142857Y-80954761D01*
X161190476Y-80907142D01*
X161238095Y-80811904D01*
X161238095Y-80716666D01*
X161190476Y-80621428D01*
X161142857Y-80573809D01*
X161047619Y-80526190D01*
X160857142Y-80478571D01*
X160761904Y-80430952D01*
X160714285Y-80383333D01*
X160666666Y-80288095D01*
X160666666Y-80192857D01*
X160714285Y-80097619D01*
X160761904Y-80050000D01*
X160857142Y-80002380D01*
X161095238Y-80002380D01*
X161238095Y-80050000D01*
X161571428Y-80002380D02*
X161809523Y-81002380D01*
X162000000Y-80288095D01*
X162190476Y-81002380D01*
X162428571Y-80002380D01*
X162761904Y-80097619D02*
X162809523Y-80050000D01*
X162904761Y-80002380D01*
X163142857Y-80002380D01*
X163238095Y-80050000D01*
X163285714Y-80097619D01*
X163333333Y-80192857D01*
X163333333Y-80288095D01*
X163285714Y-80430952D01*
X162714285Y-81002380D01*
X163333333Y-81002380D01*
%TO.C,SW3*%
X160666666Y-100004761D02*
X160809523Y-100052380D01*
X161047619Y-100052380D01*
X161142857Y-100004761D01*
X161190476Y-99957142D01*
X161238095Y-99861904D01*
X161238095Y-99766666D01*
X161190476Y-99671428D01*
X161142857Y-99623809D01*
X161047619Y-99576190D01*
X160857142Y-99528571D01*
X160761904Y-99480952D01*
X160714285Y-99433333D01*
X160666666Y-99338095D01*
X160666666Y-99242857D01*
X160714285Y-99147619D01*
X160761904Y-99100000D01*
X160857142Y-99052380D01*
X161095238Y-99052380D01*
X161238095Y-99100000D01*
X161571428Y-99052380D02*
X161809523Y-100052380D01*
X162000000Y-99338095D01*
X162190476Y-100052380D01*
X162428571Y-99052380D01*
X162714285Y-99052380D02*
X163333333Y-99052380D01*
X163000000Y-99433333D01*
X163142857Y-99433333D01*
X163238095Y-99480952D01*
X163285714Y-99528571D01*
X163333333Y-99623809D01*
X163333333Y-99861904D01*
X163285714Y-99957142D01*
X163238095Y-100004761D01*
X163142857Y-100052380D01*
X162857142Y-100052380D01*
X162761904Y-100004761D01*
X162714285Y-99957142D01*
%TO.C,SW4*%
X160666666Y-91114761D02*
X160809523Y-91162380D01*
X161047619Y-91162380D01*
X161142857Y-91114761D01*
X161190476Y-91067142D01*
X161238095Y-90971904D01*
X161238095Y-90876666D01*
X161190476Y-90781428D01*
X161142857Y-90733809D01*
X161047619Y-90686190D01*
X160857142Y-90638571D01*
X160761904Y-90590952D01*
X160714285Y-90543333D01*
X160666666Y-90448095D01*
X160666666Y-90352857D01*
X160714285Y-90257619D01*
X160761904Y-90210000D01*
X160857142Y-90162380D01*
X161095238Y-90162380D01*
X161238095Y-90210000D01*
X161571428Y-90162380D02*
X161809523Y-91162380D01*
X162000000Y-90448095D01*
X162190476Y-91162380D01*
X162428571Y-90162380D01*
X163238095Y-90495714D02*
X163238095Y-91162380D01*
X163000000Y-90114761D02*
X162761904Y-90829047D01*
X163380952Y-90829047D01*
%TO.C,SW5*%
X160666666Y-51744761D02*
X160809523Y-51792380D01*
X161047619Y-51792380D01*
X161142857Y-51744761D01*
X161190476Y-51697142D01*
X161238095Y-51601904D01*
X161238095Y-51506666D01*
X161190476Y-51411428D01*
X161142857Y-51363809D01*
X161047619Y-51316190D01*
X160857142Y-51268571D01*
X160761904Y-51220952D01*
X160714285Y-51173333D01*
X160666666Y-51078095D01*
X160666666Y-50982857D01*
X160714285Y-50887619D01*
X160761904Y-50840000D01*
X160857142Y-50792380D01*
X161095238Y-50792380D01*
X161238095Y-50840000D01*
X161571428Y-50792380D02*
X161809523Y-51792380D01*
X162000000Y-51078095D01*
X162190476Y-51792380D01*
X162428571Y-50792380D01*
X163285714Y-50792380D02*
X162809523Y-50792380D01*
X162761904Y-51268571D01*
X162809523Y-51220952D01*
X162904761Y-51173333D01*
X163142857Y-51173333D01*
X163238095Y-51220952D01*
X163285714Y-51268571D01*
X163333333Y-51363809D01*
X163333333Y-51601904D01*
X163285714Y-51697142D01*
X163238095Y-51744761D01*
X163142857Y-51792380D01*
X162904761Y-51792380D01*
X162809523Y-51744761D01*
X162761904Y-51697142D01*
%TO.C,U1*%
D13*
X122415904Y-73357619D02*
X122415904Y-74180095D01*
X122464285Y-74276857D01*
X122512666Y-74325238D01*
X122609428Y-74373619D01*
X122802952Y-74373619D01*
X122899714Y-74325238D01*
X122948095Y-74276857D01*
X122996476Y-74180095D01*
X122996476Y-73357619D01*
X124012476Y-74373619D02*
X123431904Y-74373619D01*
X123722190Y-74373619D02*
X123722190Y-73357619D01*
X123625428Y-73502761D01*
X123528666Y-73599523D01*
X123431904Y-73647904D01*
X119150190Y-76405619D02*
X118666380Y-76405619D01*
X118666380Y-75389619D01*
X119343714Y-75389619D02*
X119924285Y-75389619D01*
X119634000Y-76405619D02*
X119634000Y-75389619D01*
X120843523Y-76308857D02*
X120795142Y-76357238D01*
X120650000Y-76405619D01*
X120553238Y-76405619D01*
X120408095Y-76357238D01*
X120311333Y-76260476D01*
X120262952Y-76163714D01*
X120214571Y-75970190D01*
X120214571Y-75825047D01*
X120262952Y-75631523D01*
X120311333Y-75534761D01*
X120408095Y-75438000D01*
X120553238Y-75389619D01*
X120650000Y-75389619D01*
X120795142Y-75438000D01*
X120843523Y-75486380D01*
X121278952Y-76018571D02*
X122053047Y-76018571D01*
X122972285Y-75728285D02*
X122972285Y-76405619D01*
X122730380Y-75341238D02*
X122488476Y-76066952D01*
X123117428Y-76066952D01*
X123407714Y-75389619D02*
X124085047Y-75389619D01*
X123649619Y-76405619D01*
X124423714Y-75486380D02*
X124472095Y-75438000D01*
X124568857Y-75389619D01*
X124810761Y-75389619D01*
X124907523Y-75438000D01*
X124955904Y-75486380D01*
X125004285Y-75583142D01*
X125004285Y-75679904D01*
X124955904Y-75825047D01*
X124375333Y-76405619D01*
X125004285Y-76405619D01*
X125342952Y-75389619D02*
X126020285Y-75389619D01*
X125584857Y-76405619D01*
X126697619Y-75389619D02*
X126697619Y-76115333D01*
X126649238Y-76260476D01*
X126552476Y-76357238D01*
X126407333Y-76405619D01*
X126310571Y-76405619D01*
X127762000Y-76405619D02*
X127423333Y-75921809D01*
X127181428Y-76405619D02*
X127181428Y-75389619D01*
X127568476Y-75389619D01*
X127665238Y-75438000D01*
X127713619Y-75486380D01*
X127762000Y-75583142D01*
X127762000Y-75728285D01*
X127713619Y-75825047D01*
X127665238Y-75873428D01*
X127568476Y-75921809D01*
X127181428Y-75921809D01*
%TD*%
M02*
