%TF.GenerationSoftware,KiCad,Pcbnew,(5.1.9)-1*%
%TF.CreationDate,2021-07-21T14:19:06-07:00*%
%TF.ProjectId,Quiz3,5175697a-332e-46b6-9963-61645f706362,rev?*%
%TF.SameCoordinates,Original*%
%TF.FileFunction,Copper,L2,Bot*%
%TF.FilePolarity,Positive*%
%FSLAX46Y46*%
G04 Gerber Fmt 4.6, Leading zero omitted, Abs format (unit mm)*
G04 Created by KiCad (PCBNEW (5.1.9)-1) date 2021-07-21 14:19:06*
%MOMM*%
%LPD*%
G01*
G04 APERTURE LIST*
%TA.AperFunction,ComponentPad*%
%ADD10R,1.524000X2.032000*%
%TD*%
%TA.AperFunction,ComponentPad*%
%ADD11O,1.651000X2.286000*%
%TD*%
%TA.AperFunction,ComponentPad*%
%ADD12O,1.050000X1.500000*%
%TD*%
%TA.AperFunction,ComponentPad*%
%ADD13R,1.050000X1.500000*%
%TD*%
%TA.AperFunction,ComponentPad*%
%ADD14O,1.600000X1.600000*%
%TD*%
%TA.AperFunction,ComponentPad*%
%ADD15C,1.600000*%
%TD*%
%TA.AperFunction,ComponentPad*%
%ADD16C,2.000000*%
%TD*%
%TA.AperFunction,ComponentPad*%
%ADD17C,1.905000*%
%TD*%
%TA.AperFunction,Conductor*%
%ADD18C,0.254000*%
%TD*%
%TA.AperFunction,Conductor*%
%ADD19C,0.762000*%
%TD*%
G04 APERTURE END LIST*
D10*
%TO.P,STM1,JP31*%
%TO.N,GND*%
X182636201Y-104196201D03*
D11*
%TO.P,STM1,JP32*%
X180096201Y-104196201D03*
%TO.P,STM1,JP22*%
X180096201Y-50856201D03*
D10*
%TO.P,STM1,JP21*%
X182636201Y-50856201D03*
D11*
%TO.P,STM1,1-1*%
X152157401Y-50602201D03*
%TO.P,STM1,1-3*%
%TO.N,VDD*%
X149617401Y-50602201D03*
%TO.P,STM1,1-5*%
%TO.N,GND*%
X147077401Y-50602201D03*
%TO.P,STM1,1-7*%
%TO.N,/PC1*%
X144537401Y-50602201D03*
%TO.P,STM1,1-9*%
%TO.N,Net-(STM1-Pad1-9)*%
X141997401Y-50602201D03*
%TO.P,STM1,1-11*%
%TO.N,Net-(STM1-Pad1-11)*%
X139457401Y-50602201D03*
%TO.P,STM1,1-13*%
%TO.N,Net-(STM1-Pad1-13)*%
X136917401Y-50602201D03*
%TO.P,STM1,1-15*%
%TO.N,Net-(STM1-Pad1-15)*%
X134377401Y-50602201D03*
%TO.P,STM1,1-17*%
%TO.N,Net-(STM1-Pad1-17)*%
X131837401Y-50602201D03*
%TO.P,STM1,1-19*%
%TO.N,/PC5*%
X129297401Y-50602201D03*
%TO.P,STM1,1-21*%
%TO.N,Net-(STM1-Pad1-21)*%
X126757401Y-50602201D03*
%TO.P,STM1,1-23*%
%TO.N,GND*%
X124217401Y-50602201D03*
%TO.P,STM1,1-25*%
%TO.N,Net-(STM1-Pad1-25)*%
X121677401Y-50602201D03*
%TO.P,STM1,1-27*%
%TO.N,Net-(STM1-Pad1-27)*%
X119137401Y-50602201D03*
%TO.P,STM1,1-29*%
%TO.N,Net-(STM1-Pad1-29)*%
X116597401Y-50602201D03*
%TO.P,STM1,1-31*%
%TO.N,Net-(STM1-Pad1-31)*%
X114057401Y-50602201D03*
%TO.P,STM1,1-33*%
%TO.N,Net-(STM1-Pad1-33)*%
X111517401Y-50602201D03*
%TO.P,STM1,1-35*%
%TO.N,Net-(STM1-Pad1-35)*%
X108977401Y-50602201D03*
%TO.P,STM1,1-37*%
%TO.N,Net-(STM1-Pad1-37)*%
X106437401Y-50602201D03*
%TO.P,STM1,1-39*%
%TO.N,Net-(STM1-Pad1-39)*%
X103897401Y-50602201D03*
%TO.P,STM1,1-41*%
%TO.N,/PD9*%
X101357401Y-50602201D03*
%TO.P,STM1,1-43*%
%TO.N,Net-(STM1-Pad1-43)*%
X98817401Y-50602201D03*
%TO.P,STM1,1-45*%
%TO.N,Net-(STM1-Pad1-45)*%
X96277401Y-50602201D03*
%TO.P,STM1,1-47*%
%TO.N,Net-(STM1-Pad1-47)*%
X93737401Y-50602201D03*
%TO.P,STM1,1-49*%
%TO.N,GND*%
X91197401Y-50602201D03*
%TO.P,STM1,1-2*%
X152157401Y-53650201D03*
%TO.P,STM1,1-4*%
%TO.N,VDD*%
X149617401Y-53650201D03*
%TO.P,STM1,1-6*%
%TO.N,Net-(STM1-Pad1-6)*%
X147077401Y-53650201D03*
%TO.P,STM1,1-8*%
%TO.N,Net-(STM1-Pad1-8)*%
X144537401Y-53650201D03*
%TO.P,STM1,1-10*%
%TO.N,/PC2*%
X141997401Y-53650201D03*
%TO.P,STM1,1-12*%
%TO.N,Net-(STM1-Pad1-12)*%
X139457401Y-53650201D03*
%TO.P,STM1,1-14*%
%TO.N,Net-(STM1-Pad1-14)*%
X136917401Y-53650201D03*
%TO.P,STM1,1-16*%
%TO.N,Net-(STM1-Pad1-16)*%
X134377401Y-53650201D03*
%TO.P,STM1,1-18*%
%TO.N,Net-(STM1-Pad1-18)*%
X131837401Y-53650201D03*
%TO.P,STM1,1-20*%
%TO.N,/PC4*%
X129297401Y-53650201D03*
%TO.P,STM1,1-22*%
%TO.N,Net-(STM1-Pad1-22)*%
X126757401Y-53650201D03*
%TO.P,STM1,1-24*%
%TO.N,Net-(STM1-Pad1-24)*%
X124217401Y-53650201D03*
%TO.P,STM1,1-26*%
%TO.N,/PE8*%
X121677401Y-53650201D03*
%TO.P,STM1,1-28*%
%TO.N,Net-(STM1-Pad1-28)*%
X119137401Y-53650201D03*
%TO.P,STM1,1-30*%
%TO.N,Net-(STM1-Pad1-30)*%
X116597401Y-53650201D03*
%TO.P,STM1,1-32*%
%TO.N,Net-(STM1-Pad1-32)*%
X114057401Y-53650201D03*
%TO.P,STM1,1-34*%
%TO.N,Net-(STM1-Pad1-34)*%
X111517401Y-53650201D03*
%TO.P,STM1,1-36*%
%TO.N,Net-(STM1-Pad1-36)*%
X108977401Y-53650201D03*
%TO.P,STM1,1-38*%
%TO.N,Net-(STM1-Pad1-38)*%
X106437401Y-53650201D03*
%TO.P,STM1,1-40*%
%TO.N,/PD8*%
X103897401Y-53650201D03*
%TO.P,STM1,1-42*%
%TO.N,Net-(STM1-Pad1-42)*%
X101357401Y-53650201D03*
%TO.P,STM1,1-44*%
%TO.N,Net-(STM1-Pad1-44)*%
X98817401Y-53650201D03*
%TO.P,STM1,1-46*%
%TO.N,Net-(STM1-Pad1-46)*%
X96277401Y-53650201D03*
%TO.P,STM1,1-48*%
%TO.N,Net-(STM1-Pad1-48)*%
X93737401Y-53650201D03*
%TO.P,STM1,1-50*%
%TO.N,GND*%
X91197401Y-53650201D03*
%TO.P,STM1,2-1*%
X152157401Y-101402201D03*
%TO.P,STM1,2-3*%
%TO.N,Net-(STM1-Pad2-3)*%
X149617401Y-101402201D03*
%TO.P,STM1,2-5*%
%TO.N,Net-(STM1-Pad2-5)*%
X147077401Y-101402201D03*
%TO.P,STM1,2-7*%
%TO.N,Net-(STM1-Pad2-7)*%
X144537401Y-101402201D03*
%TO.P,STM1,2-9*%
%TO.N,Net-(STM1-Pad2-9)*%
X141997401Y-101402201D03*
%TO.P,STM1,2-11*%
%TO.N,/PE6*%
X139457401Y-101402201D03*
%TO.P,STM1,2-13*%
%TO.N,/PE4*%
X136917401Y-101402201D03*
%TO.P,STM1,2-15*%
%TO.N,/PE2*%
X134377401Y-101402201D03*
%TO.P,STM1,2-17*%
%TO.N,Net-(STM1-Pad2-17)*%
X131837401Y-101402201D03*
%TO.P,STM1,2-19*%
%TO.N,Net-(STM1-Pad2-19)*%
X129297401Y-101402201D03*
%TO.P,STM1,2-21*%
%TO.N,Net-(STM1-Pad2-21)*%
X126757401Y-101402201D03*
%TO.P,STM1,2-23*%
%TO.N,Net-(STM1-Pad2-23)*%
X124217401Y-101402201D03*
%TO.P,STM1,2-25*%
%TO.N,Net-(STM1-Pad2-25)*%
X121677401Y-101402201D03*
%TO.P,STM1,2-27*%
%TO.N,/PD7*%
X119137401Y-101402201D03*
%TO.P,STM1,2-29*%
%TO.N,Net-(STM1-Pad2-29)*%
X116597401Y-101402201D03*
%TO.P,STM1,2-31*%
%TO.N,/PD3*%
X114057401Y-101402201D03*
%TO.P,STM1,2-33*%
%TO.N,/PD1*%
X111517401Y-101402201D03*
%TO.P,STM1,2-35*%
%TO.N,Net-(STM1-Pad2-35)*%
X108977401Y-101402201D03*
%TO.P,STM1,2-37*%
%TO.N,Net-(STM1-Pad2-37)*%
X106437401Y-101402201D03*
%TO.P,STM1,2-39*%
%TO.N,Net-(STM1-Pad2-39)*%
X103897401Y-101402201D03*
%TO.P,STM1,2-41*%
%TO.N,Net-(STM1-Pad2-41)*%
X101357401Y-101402201D03*
%TO.P,STM1,2-43*%
%TO.N,Net-(STM1-Pad2-43)*%
X98817401Y-101402201D03*
%TO.P,STM1,2-45*%
%TO.N,Net-(STM1-Pad2-45)*%
X96277401Y-101402201D03*
%TO.P,STM1,2-47*%
%TO.N,/PC6*%
X93737401Y-101402201D03*
%TO.P,STM1,2-49*%
%TO.N,GND*%
X91197401Y-101402201D03*
%TO.P,STM1,2-2*%
X152157401Y-104450201D03*
%TO.P,STM1,2-4*%
%TO.N,Net-(STM1-Pad2-4)*%
X149617401Y-104450201D03*
%TO.P,STM1,2-6*%
%TO.N,Net-(STM1-Pad2-6)*%
X147077401Y-104450201D03*
%TO.P,STM1,2-8*%
%TO.N,Net-(STM1-Pad2-8)*%
X144537401Y-104450201D03*
%TO.P,STM1,2-10*%
%TO.N,Net-(STM1-Pad2-10)*%
X141997401Y-104450201D03*
%TO.P,STM1,2-12*%
%TO.N,Net-(STM1-Pad2-12)*%
X139457401Y-104450201D03*
%TO.P,STM1,2-14*%
%TO.N,/PE5*%
X136917401Y-104450201D03*
%TO.P,STM1,2-16*%
%TO.N,Net-(STM1-Pad2-16)*%
X134377401Y-104450201D03*
%TO.P,STM1,2-18*%
%TO.N,Net-(STM1-Pad2-18)*%
X131837401Y-104450201D03*
%TO.P,STM1,2-20*%
%TO.N,Net-(STM1-Pad2-20)*%
X129297401Y-104450201D03*
%TO.P,STM1,2-22*%
%TO.N,VDD*%
X126757401Y-104450201D03*
%TO.P,STM1,2-24*%
%TO.N,Net-(STM1-Pad2-24)*%
X124217401Y-104450201D03*
%TO.P,STM1,2-26*%
%TO.N,Net-(STM1-Pad2-26)*%
X121677401Y-104450201D03*
%TO.P,STM1,2-28*%
%TO.N,Net-(STM1-Pad2-28)*%
X119137401Y-104450201D03*
%TO.P,STM1,2-30*%
%TO.N,/PD6*%
X116597401Y-104450201D03*
%TO.P,STM1,2-32*%
%TO.N,Net-(STM1-Pad2-32)*%
X114057401Y-104450201D03*
%TO.P,STM1,2-34*%
%TO.N,/PD2*%
X111517401Y-104450201D03*
%TO.P,STM1,2-36*%
%TO.N,/PD0*%
X108977401Y-104450201D03*
%TO.P,STM1,2-38*%
%TO.N,Net-(STM1-Pad2-38)*%
X106437401Y-104450201D03*
%TO.P,STM1,2-40*%
%TO.N,Net-(STM1-Pad2-40)*%
X103897401Y-104450201D03*
%TO.P,STM1,2-42*%
%TO.N,Net-(STM1-Pad2-42)*%
X101357401Y-104450201D03*
%TO.P,STM1,2-44*%
%TO.N,Net-(STM1-Pad2-44)*%
X98817401Y-104450201D03*
%TO.P,STM1,2-46*%
%TO.N,Net-(STM1-Pad2-46)*%
X96277401Y-104450201D03*
%TO.P,STM1,2-48*%
%TO.N,Net-(STM1-Pad2-48)*%
X93737401Y-104450201D03*
%TO.P,STM1,2-50*%
%TO.N,GND*%
X91197401Y-104450201D03*
%TD*%
D12*
%TO.P,Q1,2*%
%TO.N,/PC1*%
X95250000Y-62230000D03*
%TO.P,Q1,3*%
%TO.N,/D1*%
X96520000Y-62230000D03*
D13*
%TO.P,Q1,1*%
%TO.N,GND*%
X93980000Y-62230000D03*
%TD*%
%TO.P,Q2,1*%
%TO.N,GND*%
X91440000Y-76200000D03*
D12*
%TO.P,Q2,3*%
%TO.N,/D2*%
X93980000Y-76200000D03*
%TO.P,Q2,2*%
%TO.N,/PC2*%
X92710000Y-76200000D03*
%TD*%
%TO.P,Q3,2*%
%TO.N,/PC4*%
X157480000Y-66040000D03*
%TO.P,Q3,3*%
%TO.N,/D3*%
X158750000Y-66040000D03*
D13*
%TO.P,Q3,1*%
%TO.N,GND*%
X156210000Y-66040000D03*
%TD*%
%TO.P,Q4,1*%
%TO.N,GND*%
X163830000Y-66040000D03*
D12*
%TO.P,Q4,3*%
%TO.N,/D4*%
X166370000Y-66040000D03*
%TO.P,Q4,2*%
%TO.N,/PC5*%
X165100000Y-66040000D03*
%TD*%
D14*
%TO.P,R1,2*%
%TO.N,/PD6*%
X118110000Y-88900000D03*
D15*
%TO.P,R1,1*%
%TO.N,Net-(R1-Pad1)*%
X130810000Y-88900000D03*
%TD*%
%TO.P,R2,1*%
%TO.N,Net-(R2-Pad1)*%
X129540000Y-85090000D03*
D14*
%TO.P,R2,2*%
%TO.N,/PD7*%
X142240000Y-85090000D03*
%TD*%
D15*
%TO.P,R3,1*%
%TO.N,/PD2*%
X97790000Y-81280000D03*
D14*
%TO.P,R3,2*%
%TO.N,Net-(R3-Pad2)*%
X97790000Y-68580000D03*
%TD*%
%TO.P,R4,2*%
%TO.N,Net-(R4-Pad2)*%
X115570000Y-62230000D03*
D15*
%TO.P,R4,1*%
%TO.N,/PD9*%
X102870000Y-62230000D03*
%TD*%
%TO.P,R5,1*%
%TO.N,/PD1*%
X106680000Y-85090000D03*
D14*
%TO.P,R5,2*%
%TO.N,Net-(R5-Pad2)*%
X119380000Y-85090000D03*
%TD*%
%TO.P,R6,2*%
%TO.N,Net-(R6-Pad2)*%
X147320000Y-93980000D03*
D15*
%TO.P,R6,1*%
%TO.N,/PD3*%
X134620000Y-93980000D03*
%TD*%
%TO.P,R7,1*%
%TO.N,/PD8*%
X152400000Y-68580000D03*
D14*
%TO.P,R7,2*%
%TO.N,Net-(R7-Pad2)*%
X152400000Y-81280000D03*
%TD*%
%TO.P,R8,2*%
%TO.N,/PD0*%
X110490000Y-93980000D03*
D15*
%TO.P,R8,1*%
%TO.N,Net-(R8-Pad1)*%
X123190000Y-93980000D03*
%TD*%
D16*
%TO.P,SW1,2*%
%TO.N,GND*%
X158750000Y-76890000D03*
%TO.P,SW1,1*%
%TO.N,/PE2*%
X158750000Y-72390000D03*
%TO.P,SW1,2*%
%TO.N,GND*%
X165250000Y-76890000D03*
%TO.P,SW1,1*%
%TO.N,/PE2*%
X165250000Y-72390000D03*
%TD*%
%TO.P,SW2,1*%
%TO.N,/PE4*%
X165250000Y-82550000D03*
%TO.P,SW2,2*%
%TO.N,GND*%
X165250000Y-87050000D03*
%TO.P,SW2,1*%
%TO.N,/PE4*%
X158750000Y-82550000D03*
%TO.P,SW2,2*%
%TO.N,GND*%
X158750000Y-87050000D03*
%TD*%
%TO.P,SW3,2*%
%TO.N,GND*%
X158750000Y-106100000D03*
%TO.P,SW3,1*%
%TO.N,/PE5*%
X158750000Y-101600000D03*
%TO.P,SW3,2*%
%TO.N,GND*%
X165250000Y-106100000D03*
%TO.P,SW3,1*%
%TO.N,/PE5*%
X165250000Y-101600000D03*
%TD*%
%TO.P,SW4,1*%
%TO.N,/PE6*%
X165250000Y-92710000D03*
%TO.P,SW4,2*%
%TO.N,GND*%
X165250000Y-97210000D03*
%TO.P,SW4,1*%
%TO.N,/PE6*%
X158750000Y-92710000D03*
%TO.P,SW4,2*%
%TO.N,GND*%
X158750000Y-97210000D03*
%TD*%
%TO.P,SW5,2*%
%TO.N,GND*%
X158750000Y-57840000D03*
%TO.P,SW5,1*%
%TO.N,/PE8*%
X158750000Y-53340000D03*
%TO.P,SW5,2*%
%TO.N,GND*%
X165250000Y-57840000D03*
%TO.P,SW5,1*%
%TO.N,/PE8*%
X165250000Y-53340000D03*
%TD*%
D17*
%TO.P,U1,2*%
%TO.N,/D2*%
X116840000Y-80010000D03*
%TO.P,U1,3*%
%TO.N,Net-(R1-Pad1)*%
X119380000Y-80010000D03*
%TO.P,U1,4*%
%TO.N,/PC6*%
X121920000Y-80010000D03*
%TO.P,U1,5*%
%TO.N,Net-(R2-Pad1)*%
X124460000Y-80010000D03*
%TO.P,U1,6*%
%TO.N,/D3*%
X127000000Y-80010000D03*
%TO.P,U1,7*%
%TO.N,Net-(R8-Pad1)*%
X129540000Y-80010000D03*
%TO.P,U1,8*%
%TO.N,/D4*%
X132080000Y-80010000D03*
%TO.P,U1,1*%
%TO.N,/D1*%
X114300000Y-80010000D03*
%TO.P,U1,9*%
%TO.N,Net-(U1-Pad9)*%
X132080000Y-69850000D03*
%TO.P,U1,11*%
%TO.N,Net-(R7-Pad2)*%
X127000000Y-69850000D03*
%TO.P,U1,13*%
%TO.N,Net-(R6-Pad2)*%
X121920000Y-69850000D03*
%TO.P,U1,14*%
%TO.N,Net-(R5-Pad2)*%
X119380000Y-69850000D03*
%TO.P,U1,15*%
%TO.N,Net-(R4-Pad2)*%
X116840000Y-69850000D03*
%TO.P,U1,16*%
%TO.N,Net-(R3-Pad2)*%
X114300000Y-69850000D03*
%TD*%
D18*
%TO.N,/D1*%
X115608101Y-81318101D02*
X114300000Y-80010000D01*
X118148101Y-81318101D02*
X115608101Y-81318101D01*
X120535601Y-83705601D02*
X118148101Y-81318101D01*
X119934689Y-86245601D02*
X120535601Y-85644689D01*
X120535601Y-85644689D02*
X120535601Y-83705601D01*
X113745311Y-86245601D02*
X119934689Y-86245601D01*
X96520000Y-69020290D02*
X113745311Y-86245601D01*
X96520000Y-62230000D02*
X96520000Y-69020290D01*
D19*
%TO.N,GND*%
X91197401Y-50856201D02*
X91197401Y-53396201D01*
X91197401Y-59447401D02*
X93980000Y-62230000D01*
X91197401Y-53396201D02*
X91197401Y-59447401D01*
X91440000Y-64770000D02*
X91440000Y-76200000D01*
X93980000Y-62230000D02*
X91440000Y-64770000D01*
X91440000Y-101413602D02*
X91197401Y-101656201D01*
X91440000Y-76200000D02*
X91440000Y-101413602D01*
X91197401Y-101656201D02*
X91197401Y-104196201D01*
X156846201Y-104196201D02*
X158750000Y-106100000D01*
X152157401Y-104196201D02*
X156846201Y-104196201D01*
X158750000Y-106100000D02*
X165250000Y-106100000D01*
X152157401Y-101656201D02*
X152157401Y-104196201D01*
X157140399Y-104490399D02*
X158750000Y-106100000D01*
X157140399Y-98819601D02*
X157140399Y-104490399D01*
X158750000Y-97210000D02*
X157140399Y-98819601D01*
X165250000Y-76890000D02*
X158750000Y-76890000D01*
X158532000Y-87268000D02*
X158750000Y-87050000D01*
X156730074Y-87268000D02*
X158532000Y-87268000D01*
X156149790Y-86687716D02*
X156730074Y-87268000D01*
X156149790Y-79490210D02*
X156149790Y-86687716D01*
X158750000Y-76890000D02*
X156149790Y-79490210D01*
X158750000Y-87050000D02*
X165250000Y-87050000D01*
X157140399Y-95600399D02*
X158750000Y-97210000D01*
X157140399Y-88659601D02*
X157140399Y-95600399D01*
X158750000Y-87050000D02*
X157140399Y-88659601D01*
X156210000Y-65480420D02*
X156210000Y-66040000D01*
X157010030Y-64680390D02*
X156210000Y-65480420D01*
X162470390Y-64680390D02*
X157010030Y-64680390D01*
X163830000Y-66040000D02*
X162470390Y-64680390D01*
X156210000Y-60380000D02*
X158750000Y-57840000D01*
X156210000Y-66040000D02*
X156210000Y-60380000D01*
X158750000Y-57840000D02*
X165250000Y-57840000D01*
X156601200Y-57840000D02*
X152157401Y-53396201D01*
X158750000Y-57840000D02*
X156601200Y-57840000D01*
X152157401Y-53396201D02*
X152157401Y-50856201D01*
X150211843Y-48849591D02*
X149022959Y-48849591D01*
X149022959Y-48849591D02*
X147077401Y-50795149D01*
X152157401Y-50795149D02*
X150211843Y-48849591D01*
X152157401Y-50856201D02*
X152157401Y-50795149D01*
X126162959Y-48849591D02*
X124217401Y-50795149D01*
X145131843Y-48849591D02*
X126162959Y-48849591D01*
X147077401Y-50795149D02*
X145131843Y-48849591D01*
X147077401Y-50856201D02*
X147077401Y-50795149D01*
X92302291Y-60552291D02*
X93980000Y-62230000D01*
X165250000Y-97210000D02*
X158750000Y-97210000D01*
X173112402Y-57840000D02*
X180096201Y-50856201D01*
X165250000Y-57840000D02*
X173112402Y-57840000D01*
X182636201Y-50856201D02*
X180096201Y-50856201D01*
X178192402Y-106100000D02*
X180096201Y-104196201D01*
X165250000Y-106100000D02*
X178192402Y-106100000D01*
X180096201Y-104196201D02*
X182636201Y-104196201D01*
X166859601Y-75280399D02*
X165250000Y-76890000D01*
X166859601Y-71617391D02*
X166859601Y-75280399D01*
X163830000Y-68587790D02*
X166859601Y-71617391D01*
X163830000Y-66040000D02*
X163830000Y-68587790D01*
X91197401Y-50795149D02*
X91197401Y-50856201D01*
X93142959Y-48849591D02*
X91197401Y-50795149D01*
X122271843Y-48849591D02*
X93142959Y-48849591D01*
X124217401Y-50795149D02*
X122271843Y-48849591D01*
X124217401Y-50856201D02*
X124217401Y-50795149D01*
D18*
%TO.N,/PD6*%
X117956291Y-102837311D02*
X116597401Y-104196201D01*
X117956291Y-100595470D02*
X117956291Y-102837311D01*
X118110000Y-100441761D02*
X117956291Y-100595470D01*
X118110000Y-88900000D02*
X118110000Y-100441761D01*
%TO.N,Net-(R2-Pad1)*%
X121920000Y-82550000D02*
X124460000Y-80010000D01*
X121920000Y-94420290D02*
X121920000Y-82550000D01*
X122635311Y-95135601D02*
X121920000Y-94420290D01*
X123744689Y-95135601D02*
X122635311Y-95135601D01*
X129540000Y-89340290D02*
X123744689Y-95135601D01*
X129540000Y-85090000D02*
X129540000Y-89340290D01*
%TO.N,/PD7*%
X130738001Y-90055601D02*
X119137401Y-101656201D01*
X137274399Y-90055601D02*
X130738001Y-90055601D01*
X142240000Y-85090000D02*
X137274399Y-90055601D01*
%TO.N,/PD2*%
X108488170Y-105948811D02*
X109764791Y-105948811D01*
X107618511Y-105079152D02*
X108488170Y-105948811D01*
X109764791Y-105948811D02*
X111517401Y-104196201D01*
X107618511Y-103643470D02*
X107618511Y-105079152D01*
X106926632Y-102951591D02*
X107618511Y-103643470D01*
X105998950Y-102951591D02*
X106926632Y-102951591D01*
X105256291Y-102208932D02*
X105998950Y-102951591D01*
X105256291Y-88746291D02*
X105256291Y-102208932D01*
X97790000Y-81280000D02*
X105256291Y-88746291D01*
%TO.N,Net-(R3-Pad2)*%
X99060000Y-69850000D02*
X97790000Y-68580000D01*
X114300000Y-69850000D02*
X99060000Y-69850000D01*
%TO.N,Net-(R4-Pad2)*%
X115570000Y-68580000D02*
X116840000Y-69850000D01*
X115570000Y-62230000D02*
X115570000Y-68580000D01*
%TO.N,/PD9*%
X102538511Y-52037311D02*
X101357401Y-50856201D01*
X102538511Y-54278511D02*
X102538511Y-52037311D01*
X102870000Y-54610000D02*
X102538511Y-54278511D01*
X102870000Y-62230000D02*
X102870000Y-54610000D01*
%TO.N,/PD1*%
X111645601Y-90055601D02*
X106680000Y-85090000D01*
X111645601Y-101528001D02*
X111645601Y-90055601D01*
X111517401Y-101656201D02*
X111645601Y-101528001D01*
%TO.N,Net-(R5-Pad2)*%
X112991899Y-76238101D02*
X119380000Y-69850000D01*
X117444010Y-85090000D02*
X112991899Y-80637889D01*
X112991899Y-80637889D02*
X112991899Y-76238101D01*
X119380000Y-85090000D02*
X117444010Y-85090000D01*
%TO.N,Net-(R6-Pad2)*%
X123228101Y-71158101D02*
X121920000Y-69850000D01*
X130018391Y-71158101D02*
X123228101Y-71158101D01*
X147320000Y-88459710D02*
X130018391Y-71158101D01*
X147320000Y-93980000D02*
X147320000Y-88459710D01*
%TO.N,/PD3*%
X115238511Y-105079152D02*
X116108170Y-105948811D01*
X115238511Y-102837311D02*
X115238511Y-105079152D01*
X114057401Y-101656201D02*
X115238511Y-102837311D01*
X130478511Y-98121489D02*
X134620000Y-93980000D01*
X130478511Y-105256932D02*
X130478511Y-98121489D01*
X129786632Y-105948811D02*
X130478511Y-105256932D01*
X116108170Y-105948811D02*
X129786632Y-105948811D01*
%TO.N,/PD8*%
X152400000Y-68580000D02*
X140970000Y-57150000D01*
X107651200Y-57150000D02*
X103897401Y-53396201D01*
X140970000Y-57150000D02*
X107651200Y-57150000D01*
%TO.N,Net-(R7-Pad2)*%
X130144010Y-69850000D02*
X127000000Y-69850000D01*
X141574010Y-81280000D02*
X130144010Y-69850000D01*
X152400000Y-81280000D02*
X141574010Y-81280000D01*
%TO.N,/PD0*%
X110158511Y-103015091D02*
X108977401Y-104196201D01*
X110158511Y-100773250D02*
X110158511Y-103015091D01*
X110490000Y-100441761D02*
X110158511Y-100773250D01*
X110490000Y-93980000D02*
X110490000Y-100441761D01*
%TO.N,Net-(R8-Pad1)*%
X123190000Y-86360000D02*
X123190000Y-93980000D01*
X129540000Y-80010000D02*
X123190000Y-86360000D01*
%TO.N,VDD*%
X137714689Y-92824399D02*
X131965601Y-92824399D01*
X143950290Y-99060000D02*
X137714689Y-92824399D01*
X153555601Y-57334401D02*
X153555601Y-89454689D01*
X153555601Y-89454689D02*
X143950290Y-99060000D01*
X149617401Y-53396201D02*
X153555601Y-57334401D01*
X125576291Y-103015091D02*
X126757401Y-104196201D01*
X125576291Y-99213709D02*
X125576291Y-103015091D01*
X131965601Y-92824399D02*
X125576291Y-99213709D01*
X149617401Y-50856201D02*
X149617401Y-53396201D01*
%TO.N,/PE8*%
X158750000Y-53340000D02*
X165250000Y-53340000D01*
%TO.N,/PE6*%
X158750000Y-92710000D02*
X165250000Y-92710000D01*
%TO.N,/PE4*%
X158750000Y-82550000D02*
X165250000Y-82550000D01*
%TO.N,/PE2*%
X158750000Y-72390000D02*
X165250000Y-72390000D01*
%TO.N,/PE5*%
X158750000Y-101600000D02*
X165250000Y-101600000D01*
%TD*%
M02*
