%TF.GenerationSoftware,KiCad,Pcbnew,(5.1.9)-1*%
%TF.CreationDate,2021-07-21T14:19:06-07:00*%
%TF.ProjectId,Quiz3,5175697a-332e-46b6-9963-61645f706362,rev?*%
%TF.SameCoordinates,Original*%
%TF.FileFunction,Soldermask,Top*%
%TF.FilePolarity,Negative*%
%FSLAX46Y46*%
G04 Gerber Fmt 4.6, Leading zero omitted, Abs format (unit mm)*
G04 Created by KiCad (PCBNEW (5.1.9)-1) date 2021-07-21 14:19:06*
%MOMM*%
%LPD*%
G01*
G04 APERTURE LIST*
%ADD10C,3.099998*%
%ADD11R,1.524000X2.032000*%
%ADD12O,1.651000X2.286000*%
%ADD13O,1.050000X1.500000*%
%ADD14R,1.050000X1.500000*%
%ADD15O,1.600000X1.600000*%
%ADD16C,1.600000*%
%ADD17C,2.000000*%
%ADD18C,1.905000*%
G04 APERTURE END LIST*
D10*
%TO.C,H2*%
X172720000Y-48260000D03*
%TD*%
%TO.C,H1*%
X173990000Y-100330000D03*
%TD*%
D11*
%TO.C,STM1*%
X182636201Y-104196201D03*
D12*
X180096201Y-104196201D03*
X180096201Y-50856201D03*
D11*
X182636201Y-50856201D03*
D12*
X152157401Y-50602201D03*
X149617401Y-50602201D03*
X147077401Y-50602201D03*
X144537401Y-50602201D03*
X141997401Y-50602201D03*
X139457401Y-50602201D03*
X136917401Y-50602201D03*
X134377401Y-50602201D03*
X131837401Y-50602201D03*
X129297401Y-50602201D03*
X126757401Y-50602201D03*
X124217401Y-50602201D03*
X121677401Y-50602201D03*
X119137401Y-50602201D03*
X116597401Y-50602201D03*
X114057401Y-50602201D03*
X111517401Y-50602201D03*
X108977401Y-50602201D03*
X106437401Y-50602201D03*
X103897401Y-50602201D03*
X101357401Y-50602201D03*
X98817401Y-50602201D03*
X96277401Y-50602201D03*
X93737401Y-50602201D03*
X91197401Y-50602201D03*
X152157401Y-53650201D03*
X149617401Y-53650201D03*
X147077401Y-53650201D03*
X144537401Y-53650201D03*
X141997401Y-53650201D03*
X139457401Y-53650201D03*
X136917401Y-53650201D03*
X134377401Y-53650201D03*
X131837401Y-53650201D03*
X129297401Y-53650201D03*
X126757401Y-53650201D03*
X124217401Y-53650201D03*
X121677401Y-53650201D03*
X119137401Y-53650201D03*
X116597401Y-53650201D03*
X114057401Y-53650201D03*
X111517401Y-53650201D03*
X108977401Y-53650201D03*
X106437401Y-53650201D03*
X103897401Y-53650201D03*
X101357401Y-53650201D03*
X98817401Y-53650201D03*
X96277401Y-53650201D03*
X93737401Y-53650201D03*
X91197401Y-53650201D03*
X152157401Y-101402201D03*
X149617401Y-101402201D03*
X147077401Y-101402201D03*
X144537401Y-101402201D03*
X141997401Y-101402201D03*
X139457401Y-101402201D03*
X136917401Y-101402201D03*
X134377401Y-101402201D03*
X131837401Y-101402201D03*
X129297401Y-101402201D03*
X126757401Y-101402201D03*
X124217401Y-101402201D03*
X121677401Y-101402201D03*
X119137401Y-101402201D03*
X116597401Y-101402201D03*
X114057401Y-101402201D03*
X111517401Y-101402201D03*
X108977401Y-101402201D03*
X106437401Y-101402201D03*
X103897401Y-101402201D03*
X101357401Y-101402201D03*
X98817401Y-101402201D03*
X96277401Y-101402201D03*
X93737401Y-101402201D03*
X91197401Y-101402201D03*
X152157401Y-104450201D03*
X149617401Y-104450201D03*
X147077401Y-104450201D03*
X144537401Y-104450201D03*
X141997401Y-104450201D03*
X139457401Y-104450201D03*
X136917401Y-104450201D03*
X134377401Y-104450201D03*
X131837401Y-104450201D03*
X129297401Y-104450201D03*
X126757401Y-104450201D03*
X124217401Y-104450201D03*
X121677401Y-104450201D03*
X119137401Y-104450201D03*
X116597401Y-104450201D03*
X114057401Y-104450201D03*
X111517401Y-104450201D03*
X108977401Y-104450201D03*
X106437401Y-104450201D03*
X103897401Y-104450201D03*
X101357401Y-104450201D03*
X98817401Y-104450201D03*
X96277401Y-104450201D03*
X93737401Y-104450201D03*
X91197401Y-104450201D03*
%TD*%
D13*
%TO.C,Q1*%
X95250000Y-62230000D03*
X96520000Y-62230000D03*
D14*
X93980000Y-62230000D03*
%TD*%
%TO.C,Q2*%
X91440000Y-76200000D03*
D13*
X93980000Y-76200000D03*
X92710000Y-76200000D03*
%TD*%
%TO.C,Q3*%
X157480000Y-66040000D03*
X158750000Y-66040000D03*
D14*
X156210000Y-66040000D03*
%TD*%
%TO.C,Q4*%
X163830000Y-66040000D03*
D13*
X166370000Y-66040000D03*
X165100000Y-66040000D03*
%TD*%
D15*
%TO.C,R1*%
X118110000Y-88900000D03*
D16*
X130810000Y-88900000D03*
%TD*%
%TO.C,R2*%
X129540000Y-85090000D03*
D15*
X142240000Y-85090000D03*
%TD*%
D16*
%TO.C,R3*%
X97790000Y-81280000D03*
D15*
X97790000Y-68580000D03*
%TD*%
%TO.C,R4*%
X115570000Y-62230000D03*
D16*
X102870000Y-62230000D03*
%TD*%
%TO.C,R5*%
X106680000Y-85090000D03*
D15*
X119380000Y-85090000D03*
%TD*%
%TO.C,R6*%
X147320000Y-93980000D03*
D16*
X134620000Y-93980000D03*
%TD*%
%TO.C,R7*%
X152400000Y-68580000D03*
D15*
X152400000Y-81280000D03*
%TD*%
%TO.C,R8*%
X110490000Y-93980000D03*
D16*
X123190000Y-93980000D03*
%TD*%
D17*
%TO.C,SW1*%
X158750000Y-76890000D03*
X158750000Y-72390000D03*
X165250000Y-76890000D03*
X165250000Y-72390000D03*
%TD*%
%TO.C,SW2*%
X165250000Y-82550000D03*
X165250000Y-87050000D03*
X158750000Y-82550000D03*
X158750000Y-87050000D03*
%TD*%
%TO.C,SW3*%
X158750000Y-106100000D03*
X158750000Y-101600000D03*
X165250000Y-106100000D03*
X165250000Y-101600000D03*
%TD*%
%TO.C,SW4*%
X165250000Y-92710000D03*
X165250000Y-97210000D03*
X158750000Y-92710000D03*
X158750000Y-97210000D03*
%TD*%
%TO.C,SW5*%
X158750000Y-57840000D03*
X158750000Y-53340000D03*
X165250000Y-57840000D03*
X165250000Y-53340000D03*
%TD*%
D18*
%TO.C,U1*%
X116840000Y-80010000D03*
X119380000Y-80010000D03*
X121920000Y-80010000D03*
X124460000Y-80010000D03*
X127000000Y-80010000D03*
X129540000Y-80010000D03*
X132080000Y-80010000D03*
X114300000Y-80010000D03*
X132080000Y-69850000D03*
X127000000Y-69850000D03*
X121920000Y-69850000D03*
X119380000Y-69850000D03*
X116840000Y-69850000D03*
X114300000Y-69850000D03*
%TD*%
M02*
